# xmcd
#
# Track frame offsets:
# 150
# 15302
# 29252
# 43570
# 57085
# 68177
# 79585
# 92065
# 108300
# 122580
# 139035
# 154500
# 167915
#
# Disc length: 2436 seconds
#
# Revision: 0
# Processed by: cddbd v1.5PL3 Copyright (c) Steve Scherf et al.
# Submitted via: plextools 2.11
#
DISCID=9809820d
DTITLE=Dænsebændet - Det Er Lov Være Blid
DYEAR=1900
DGENRE=Pop
TTITLE0=Dænsebændet - Det Er Lov Være Blid
TTITLE1=Dænsebændet - Tøffe Spørsmål, Tøffe Svar
TTITLE2=Dænsebændet - Takk For Dagen
TTITLE3=Dænsebændet - Arrivederci Min Venn
TTITLE4=Dænsebændet - En Dok Med Gamle Bilder
TTITLE5=Dænsebændet - Nidelven
TTITLE6=Dænsebændet - Sommer Og Sol
TTITLE7=Dænsebændet - Alle Har En Drøm
TTITLE8=Dænsebændet - For Dine Blåe Øynes Skyld
TTITLE9=Dænsebændet - Nordlandsnetter
TTITLE10=Dænsebændet - La Kjærlighet Få Leve På Vår Jord
TTITLE11=Dænsebændet - To Mørke Øyne
TTITLE12=Dænsebændet - Kom Og Dans
EXTD=
EXTT0=
EXTT1=
EXTT2=
EXTT3=
EXTT4=
EXTT5=
EXTT6=
EXTT7=
EXTT8=
EXTT9=
EXTT10=
EXTT11=
EXTT12=
PLAYORDER=
